<svg width="13" height="16" viewBox="0 0 13 16" fill="none" xmlns="http://www.w3.org/2000/svg">
<path d="M6.03537 0C2.70737 0 0 2.70737 0 6.03495C0 10.8261 5.38779 15.6392 5.61726 15.8421C5.73726 15.9474 5.88632 16 6.03537 16C6.19032 16 6.34526 15.9432 6.46611 15.8299C6.69474 15.616 12.0707 10.5381 12.0707 6.03537C12.0707 2.70779 9.36253 0 6.03537 0ZM6.03537 8.91284C4.44589 8.91284 3.15789 7.624 3.15789 6.03579C3.15789 4.44758 4.44589 3.15874 6.03537 3.15874C7.624 3.15874 8.912 4.44716 8.912 6.03579C8.912 7.62442 7.624 8.91284 6.03537 8.91284Z" fill="#3D5467"/>
</svg>
