<svg width="16" height="16" viewBox="0 0 16 16" fill="none" xmlns="http://www.w3.org/2000/svg">
<path d="M15.7257 9.81163C15.559 9.74217 15.3685 9.78125 15.2413 9.908L13.7778 11.3715L4.62846 2.22221L6.092 0.758667C6.21917 0.6315 6.25738 0.440542 6.18837 0.274292C6.11979 0.108083 5.95746 0 5.77779 0H0.444458C0.198792 0 0 0.198792 0 0.444458V5.77779C0 5.9575 0.108083 6.11979 0.274292 6.18837C0.440083 6.25738 0.631083 6.21921 0.758667 6.092L2.22221 4.62846L11.3715 13.7778L9.90796 15.2413C9.78079 15.3685 9.74258 15.5594 9.81158 15.7257C9.88017 15.8919 10.0425 16 10.2222 16H15.5555C15.8012 16 16 15.8012 16 15.5555V10.2222C16 10.0425 15.8919 9.88021 15.7257 9.81163Z" fill="#3D5467"/>
</svg>
